# xmcd
#
# Track frame offsets: 
#        150
#        14225
#        24795
#        36710
#        48272
#        58555
#        69167
#        80327
#        89657
#        101885
#        113075
#        124000
#        134760
#        144832
#
# Disc length: 2114 seconds
#
# Revision: 3
# Processed by: cddbd v1.5.1PL2 Copyright (c) Steve Scherf et al.
# Submitted via: ExactAudioCopy v0.95b3
#
DISCID=c308400e
DTITLE=Johnny Winter The Johnny Winter Stoty - The Johnny Winter Stoty
DYEAR=1969
DGENRE=Blues
TTITLE0=ease my pain
TTITLE1=that's what love does
TTITLE2=crying in my heart
TTITLE3=the guy you left behind
TTITLE4=shed so many tears
TTITLE5=creepy
TTITLE6=gangster of love
TTITLE7=road runner
TTITLE8=leave my woman alone
TTITLE9=can't believe you wanna leave
TTITLE10=broke and lonely
TTITLE11=oh my darling
TTITLE12=by the light of the silvery moon
TTITLE13=five after four a.m.
EXTD=YEAR: 1969
EXTT0=
EXTT1=
EXTT2=
EXTT3=
EXTT4=
EXTT5=
EXTT6=
EXTT7=
EXTT8=
EXTT9=
EXTT10=
EXTT11=
EXTT12=
EXTT13=
PLAYORDER=
